<svg xmlns="http://www.w3.org/2000/svg" width="256" height="256" viewBox="0 0 100 100"><rect width="100" height="100" rx="20" fill="#52505e"></rect><path fill="#fff" d="M29.42 41.28L29.42 41.28Q29.88 41.05 30.53 40.88Q31.19 40.71 31.99 40.71L31.99 40.71Q34.38 40.71 34.90 42.19L34.90 42.19Q35.92 45.27 36.83 48.01Q37.75 50.74 38.60 53.28Q39.45 55.81 40.25 58.27Q41.05 60.72 41.85 63.34L41.85 63.34L42.08 63.34Q42.88 59.52 43.67 55.84Q44.47 52.17 45.21 48.43Q45.95 44.70 46.64 40.85Q47.32 37.00 47.95 32.73L47.95 32.73Q48.75 32.33 49.89 32.33L49.89 32.33Q50.97 32.33 51.60 32.81Q52.22 33.30 52.22 34.27L52.22 34.27Q52.22 35.35 51.91 37.57Q51.60 39.80 51.05 42.68Q50.51 45.55 49.80 48.89Q49.09 52.22 48.29 55.44Q47.49 58.66 46.69 61.63Q45.90 64.59 45.16 66.70L45.16 66.70Q44.64 66.99 43.84 67.24Q43.05 67.50 42.02 67.50L42.02 67.50Q40.77 67.50 39.91 67.10Q39.06 66.70 38.77 66.02L38.77 66.02Q38.14 64.53 37.35 62.28Q36.55 60.03 35.66 57.32Q34.78 54.62 33.87 51.68Q32.96 48.75 32.10 45.84L32.10 45.84Q31.25 48.69 30.34 51.71Q29.42 54.73 28.54 57.55Q27.66 60.37 26.80 62.77Q25.95 65.16 25.26 66.76L25.26 66.76Q24.81 67.04 24.01 67.27Q23.21 67.50 22.18 67.50L22.18 67.50Q20.87 67.50 20.08 67.07Q19.28 66.64 18.99 66.02L18.99 66.02Q18.48 64.82 17.82 62.60Q17.17 60.37 16.46 57.55Q15.74 54.73 14.97 51.48Q14.20 48.23 13.49 45.01Q12.78 41.79 12.18 38.80Q11.58 35.81 11.18 33.41L11.18 33.41Q11.58 33.01 12.27 32.67Q12.95 32.33 13.75 32.33L13.75 32.33Q15.74 32.33 16.14 34.44L16.14 34.44Q16.88 38.03 17.57 41.36Q18.25 44.70 18.96 48.15Q19.68 51.60 20.47 55.30Q21.27 59.01 22.24 63.34L22.24 63.34L22.47 63.34Q23.27 60.77 24.01 58.46Q24.75 56.16 25.55 53.65Q26.35 51.14 27.29 48.18Q28.23 45.21 29.42 41.28ZM84.09 49.60L84.09 49.60Q84.09 45.95 82.97 43.36Q81.86 40.77 79.95 39.11Q78.04 37.46 75.51 36.69Q72.97 35.92 70.06 35.92L70.06 35.92Q68.24 35.92 66.90 36.03Q65.56 36.15 64.42 36.38L64.42 36.38L64.42 63.51Q65.79 63.85 67.36 63.97Q68.92 64.08 70.58 64.08L70.58 64.08Q77.30 64.08 80.69 60.43Q84.09 56.78 84.09 49.60ZM88.82 49.60L88.82 49.60Q88.82 54.28 87.53 57.72Q86.25 61.17 83.89 63.45Q81.52 65.73 78.16 66.84Q74.80 67.95 70.63 67.95L70.63 67.95Q68.81 67.95 66.53 67.81Q64.25 67.67 62.20 67.04L62.20 67.04Q59.80 66.30 59.80 64.42L59.80 64.42L59.80 35.12Q59.80 34.21 60.26 33.73Q60.72 33.24 61.69 32.96L61.69 32.96Q63.45 32.39 65.67 32.22Q67.90 32.05 70.12 32.05L70.12 32.05Q74.28 32.05 77.73 33.16Q81.18 34.27 83.63 36.46Q86.08 38.66 87.45 41.93Q88.82 45.21 88.82 49.60Z"></path></svg>